<svg width="18" height="18" viewBox="0 0 18 18" fill="none" xmlns="http://www.w3.org/2000/svg">
<rect width="18" height="18" rx="9" fill="#028F68"/>
<path d="M9.19078 5.18918C9.18385 5.18918 9.17691 5.18491 9.16945 5.18331C9.16198 5.18171 9.14598 5.17691 9.13425 5.17424C9.12251 5.17158 9.12198 5.17158 9.11558 5.17051C9.09745 5.16731 9.07985 5.16464 9.06225 5.16304C9.04358 5.16304 9.02491 5.16304 9.00625 5.16038C9.00091 5.16038 8.99611 5.16038 8.99078 5.16038C8.97691 5.16038 8.96358 5.16038 8.94971 5.16038C8.94385 5.16038 8.93798 5.16038 8.93211 5.16038C8.91771 5.16038 8.90278 5.16411 8.88838 5.16678C8.88465 5.16678 8.88038 5.16678 8.87665 5.16678C8.85958 5.16998 8.84251 5.17424 8.82331 5.17904C8.81638 5.17904 8.80945 5.18331 8.80251 5.18598C8.79558 5.18864 8.78118 5.19291 8.77105 5.19664L8.74865 5.20571C8.73745 5.21051 8.72571 5.21584 8.71451 5.22171C8.70331 5.22758 8.70278 5.22705 8.69691 5.23025C8.68198 5.23825 8.66705 5.24678 8.65265 5.25638L8.63611 5.26758L8.60411 5.29105C8.59931 5.29478 8.59451 5.29904 8.58918 5.30278C8.57478 5.31504 8.55985 5.32838 8.54598 5.34171L5.34598 8.54171C5.22575 8.66194 5.1582 8.82501 5.1582 8.99504C5.1582 9.16508 5.22575 9.32815 5.34598 9.44838C5.46621 9.56861 5.62928 9.63615 5.79931 9.63615C5.96935 9.63615 6.13242 9.56861 6.25265 9.44838L8.35985 7.34651V12.1998C8.35985 12.3696 8.42728 12.5324 8.5473 12.6524C8.66732 12.7724 8.83011 12.8398 8.99985 12.8398C9.16959 12.8398 9.33237 12.7724 9.45239 12.6524C9.57242 12.5324 9.63985 12.3696 9.63985 12.1998V7.34651L11.747 9.45424C11.8673 9.57448 12.0303 9.64202 12.2004 9.64202C12.3704 9.64202 12.5335 9.57448 12.6537 9.45424C12.7739 9.33401 12.8415 9.17094 12.8415 9.00091C12.8415 8.83088 12.7739 8.66781 12.6537 8.54758L9.45371 5.34758L9.44945 5.34438C9.43582 5.33057 9.42139 5.31757 9.40625 5.30544C9.40353 5.30297 9.40069 5.30066 9.39771 5.29851C9.38598 5.28944 9.37371 5.28038 9.36091 5.27184L9.34278 5.25958L9.31238 5.24144C9.30545 5.23824 9.29905 5.23451 9.29265 5.23078C9.27771 5.22331 9.26171 5.21584 9.24571 5.20891L9.22651 5.20144C9.21318 5.19664 9.20251 5.19291 9.19078 5.18918Z" fill="white"/>
</svg>
