<svg width="16" height="16" viewBox="0 0 16 16" fill="none" xmlns="http://www.w3.org/2000/svg">
<path d="M10.49 8.94701C10.4167 7.70486 10.0642 6.49512 9.45627 5.41284C9.57423 5.28394 9.65729 5.12624 9.69777 4.95486C9.73826 4.78348 9.73477 4.60418 9.688 4.43424C9.64054 4.2643 9.55119 4.1102 9.42905 3.98635C9.3062 3.86249 9.15404 3.77392 8.98792 3.72784C8.8218 3.68247 8.6466 3.68175 8.47978 3.7264C8.31296 3.77104 8.1608 3.85889 8.03726 3.98203C7.91371 4.10516 7.82367 4.25854 7.77481 4.42776C7.72665 4.59698 7.72177 4.77628 7.76155 4.94838C6.76483 5.54029 5.9077 6.34967 5.25019 7.3189C5.23135 7.3441 5.21809 7.37291 5.21041 7.40387C5.20273 7.43483 5.20133 7.46652 5.20622 7.49748C5.21111 7.52844 5.22227 7.55869 5.23833 7.58533C5.25508 7.61197 5.27602 7.63502 5.30184 7.65374C5.32767 7.67246 5.35559 7.6847 5.3863 7.69118C5.41631 7.69766 5.44772 7.69766 5.47774 7.69118C5.50775 7.6847 5.53707 7.67246 5.56219 7.65518C5.58802 7.63718 5.60966 7.61413 5.62641 7.58749C6.24064 6.68379 7.03983 5.9277 7.96816 5.37251C8.09868 5.53453 8.27527 5.65046 8.4735 5.70447C8.67173 5.75848 8.88113 5.74912 9.07307 5.67567C9.70405 6.81052 10.0391 8.09227 10.0468 9.3985C9.84505 9.43451 9.65938 9.53388 9.5142 9.68222C9.36972 9.83055 9.2727 10.0214 9.2378 10.228C8.14126 10.2237 7.05868 9.96809 6.07033 9.48131C6.04311 9.46763 6.01379 9.45899 5.98308 9.45683C5.95237 9.45467 5.92235 9.45899 5.89374 9.46907C5.86512 9.47915 5.8386 9.49499 5.81556 9.51588C5.79253 9.53676 5.77438 9.56196 5.76112 9.59005C5.74786 9.61813 5.74018 9.64837 5.73878 9.68006C5.73739 9.71174 5.74158 9.7427 5.75205 9.77151C5.76252 9.80031 5.77787 9.82767 5.79881 9.85072C5.81975 9.87376 5.84418 9.89248 5.8721 9.90544C6.75854 10.3425 7.71549 10.6032 8.69337 10.6767H10.2394C10.3776 10.6767 10.49 10.5607 10.49 10.4181V8.94629V8.94701Z" fill="#677185"/>
<path d="M13.2625 8.94699C13.3274 8.95851 13.3902 8.91315 13.4 8.84618C13.4405 8.5675 13.4614 8.2845 13.4614 7.99862C13.4621 7.23244 13.3128 6.4749 13.0224 5.76921C12.4829 4.45648 11.4875 3.3965 10.2283 2.7945C8.96913 2.1925 7.53684 2.09097 6.20855 2.51078C4.88095 2.92988 3.75299 3.8408 3.04312 5.06496C2.33326 6.28912 2.09245 7.74011 2.36746 9.13638C2.64247 10.5326 3.41376 11.7741 4.53195 12.6195C5.64945 13.4656 7.03428 13.8552 8.41701 13.7133C8.60687 13.6939 8.80161 13.6615 8.99705 13.6182C9.06126 13.6038 9.10175 13.5376 9.08639 13.4713L9.03474 13.2402C9.02008 13.1761 8.95866 13.1358 8.89584 13.1495C8.11827 13.3115 7.31348 13.2863 6.54568 13.0746C5.70738 12.8434 4.94028 12.3984 4.31557 11.7798C4.32186 11.1418 4.40771 10.5074 4.57104 9.89176C4.60385 9.89464 4.63665 9.8968 4.67295 9.8968C4.83 9.8968 4.98495 9.86007 5.12595 9.78734C5.26695 9.71461 5.3877 9.60876 5.48053 9.47914C5.57337 9.3488 5.63479 9.1983 5.65992 9.03916C5.68505 8.88002 5.67318 8.71728 5.62432 8.5639C5.57616 8.41052 5.4931 8.27082 5.38212 8.15705C5.27113 8.04255 5.13572 7.95758 4.98565 7.90717C4.83628 7.85749 4.67714 7.8438 4.52218 7.86901C4.36723 7.89421 4.21925 7.95686 4.09221 8.05119C3.64829 7.60113 3.26299 7.09419 2.94471 6.54331C3.18691 5.68928 3.63503 4.9123 4.24857 4.28365C4.86211 3.65501 5.62013 3.19559 6.45284 2.94716C6.84652 3.18695 7.21785 3.46347 7.56127 3.77311C7.60384 3.81127 7.65829 3.83216 7.71413 3.83144C7.76089 3.83144 7.80696 3.81703 7.84535 3.79039C7.88374 3.76375 7.91376 3.72486 7.93051 3.68022C7.94726 3.63557 7.95005 3.5866 7.93888 3.5398C7.92772 3.49299 7.90259 3.45123 7.86769 3.41954C7.62199 3.19775 7.36234 2.9918 7.09151 2.80314C7.35047 2.76209 7.61152 2.74193 7.87327 2.74121C9.04102 2.74049 10.1739 3.14951 11.0827 3.90128C10.7441 3.92649 10.407 3.97473 10.0741 4.04458C10.0182 4.0561 9.96866 4.08851 9.93446 4.13604C9.90096 4.18284 9.8849 4.24117 9.89118 4.2995C9.89677 4.35782 9.92399 4.41111 9.96587 4.45072C10.0084 4.4896 10.0636 4.5112 10.1201 4.5112C10.1355 4.5112 10.1515 4.50976 10.1662 4.50616C10.6255 4.40895 11.0931 4.35638 11.5622 4.34918C12.1653 4.98935 12.6001 5.77569 12.8256 6.63477C13.0084 7.33182 13.0482 8.05839 12.9456 8.76913C12.9359 8.83466 12.9777 8.89586 13.0412 8.90739L13.2611 8.94699H13.2625ZM3.87723 11.2887C3.14364 10.3569 2.74438 9.19614 2.74508 7.99935C2.74508 7.73003 2.76462 7.46143 2.80511 7.195C3.09408 7.63138 3.42423 8.03751 3.79138 8.40692C3.67551 8.63303 3.64759 8.89514 3.71181 9.14142C3.77602 9.38769 3.92888 9.60012 4.13898 9.73693C4.00148 10.2439 3.91353 10.7638 3.87723 11.2887Z" fill="#677185"/>
<path fill-rule="evenodd" clip-rule="evenodd" d="M12.9595 9.7684C13.0454 9.68055 13.1612 9.63086 13.282 9.63086C13.4027 9.63086 13.5193 9.67911 13.6051 9.76624C13.6917 9.85337 13.7413 9.97218 13.7434 10.0968C13.7454 10.2213 13.7001 10.3416 13.6163 10.4323L11.1678 13.5899C11.1259 13.6367 11.0749 13.6741 11.0184 13.7001C10.9619 13.726 10.9011 13.7404 10.839 13.7411C10.7769 13.7425 10.7155 13.7303 10.6582 13.7065C10.601 13.6828 10.5487 13.6468 10.5054 13.6021L8.88326 11.9279C8.83789 11.8847 8.8016 11.8322 8.77647 11.7738C8.75134 11.7155 8.73808 11.6529 8.73668 11.5888C8.73529 11.5254 8.74715 11.462 8.77019 11.403C8.79322 11.3439 8.82742 11.2899 8.87139 11.2453C8.91537 11.1999 8.96702 11.1646 9.02425 11.1409C9.08149 11.1171 9.14291 11.1056 9.20433 11.1063C9.26576 11.107 9.32718 11.1214 9.38372 11.1474C9.44025 11.1733 9.49121 11.2107 9.53309 11.2575L10.8174 12.5818L12.9476 9.78208C12.9511 9.77704 12.9553 9.77272 12.9602 9.7684H12.9595Z" fill="#677185"/>
</svg>
