<svg width="16" height="16" viewBox="0 0 16 16" fill="none" xmlns="http://www.w3.org/2000/svg">
<g clip-path="url(#clip0_2430_14188)">
<path d="M7.9998 10.6399C7.96738 10.6398 7.9353 10.6332 7.9054 10.6207L2.3054 8.2207C2.24684 8.19566 2.20063 8.14839 2.17692 8.08928C2.15322 8.03017 2.15396 7.96406 2.179 7.9055C2.20404 7.84694 2.25131 7.80072 2.31042 7.77702C2.36953 7.75331 2.43564 7.75406 2.4942 7.7791L8.0942 10.1791C8.14512 10.2008 8.18698 10.2394 8.21269 10.2884C8.23839 10.3374 8.24637 10.3938 8.23526 10.4481C8.22415 10.5023 8.19464 10.551 8.15173 10.586C8.10882 10.6209 8.05515 10.64 7.9998 10.6399Z" fill="#677185"/>
<path d="M8.00011 10.6399C7.94476 10.64 7.89108 10.6209 7.84817 10.586C7.80526 10.551 7.77576 10.5023 7.76465 10.4481C7.75354 10.3938 7.76152 10.3374 7.78722 10.2884C7.81293 10.2394 7.85479 10.2008 7.90571 10.1791L13.5057 7.7791C13.5643 7.75406 13.6304 7.75331 13.6895 7.77702C13.7486 7.80072 13.7959 7.84694 13.8209 7.9055C13.8459 7.96406 13.8467 8.03017 13.823 8.08928C13.7993 8.14839 13.7531 8.19566 13.6945 8.2207L8.09451 10.6207C8.06461 10.6332 8.03253 10.6398 8.00011 10.6399Z" fill="#677185"/>
<path d="M2.40001 8.24049C2.34466 8.24056 2.29099 8.22151 2.24808 8.18655C2.20517 8.15159 2.17566 8.10287 2.16455 8.04865C2.15344 7.99443 2.16142 7.93804 2.18712 7.88902C2.21283 7.84 2.25469 7.80138 2.30561 7.77969L7.90561 5.37968C7.96417 5.35465 8.03028 5.3539 8.08939 5.3776C8.1485 5.40131 8.19577 5.44753 8.22081 5.50609C8.24585 5.56464 8.24659 5.63075 8.22289 5.68986C8.19918 5.74897 8.15297 5.79625 8.09441 5.82128L2.49441 8.22129C2.46451 8.23382 2.43243 8.24035 2.40001 8.24049Z" fill="#677185"/>
<path d="M9.5999 6.52635C9.56741 6.52629 9.53529 6.51957 9.5055 6.50662L7.9055 5.82128C7.84694 5.79625 7.80072 5.74897 7.77702 5.68986C7.75331 5.63075 7.75406 5.56464 7.7791 5.50609C7.80414 5.44753 7.85141 5.40131 7.91052 5.3776C7.96963 5.3539 8.03574 5.35465 8.0943 5.37968L9.6943 6.06555C9.74522 6.08724 9.78708 6.12587 9.81278 6.17488C9.83849 6.2239 9.84646 6.2803 9.83536 6.33452C9.82425 6.38874 9.79474 6.43746 9.75183 6.47242C9.70892 6.50738 9.65525 6.52643 9.5999 6.52635Z" fill="#677185"/>
<path d="M13.6002 8.23979C13.5678 8.23965 13.5357 8.23312 13.5058 8.22059L12.2413 7.67979C12.1827 7.65468 12.1365 7.60734 12.1129 7.54818C12.0892 7.48902 12.09 7.42288 12.1151 7.36432C12.1402 7.30576 12.1876 7.25957 12.2468 7.23592C12.3059 7.21226 12.372 7.21308 12.4306 7.23819L13.6946 7.78006C13.7449 7.80213 13.7861 7.84079 13.8113 7.88956C13.8365 7.93834 13.8442 7.99428 13.8332 8.04807C13.8222 8.10186 13.793 8.15023 13.7506 8.18512C13.7082 8.22001 13.6551 8.23931 13.6002 8.23979Z" fill="#677185"/>
<path d="M7.9998 13.8401C7.96738 13.84 7.9353 13.8334 7.9054 13.8209L2.3054 11.4209C2.24684 11.3959 2.20063 11.3486 2.17692 11.2895C2.15322 11.2304 2.15396 11.1643 2.179 11.1057C2.20404 11.0471 2.25131 11.0009 2.31042 10.9772C2.36953 10.9535 2.43564 10.9543 2.4942 10.9793L8.0942 13.3793C8.14512 13.401 8.18698 13.4396 8.21269 13.4886C8.23839 13.5376 8.24637 13.594 8.23526 13.6483C8.22415 13.7025 8.19464 13.7512 8.15173 13.7862C8.10882 13.8211 8.05515 13.8402 7.9998 13.8401Z" fill="#677185"/>
<path d="M8.00011 13.8401C7.94476 13.8402 7.89108 13.8211 7.84817 13.7862C7.80526 13.7512 7.77576 13.7025 7.76465 13.6483C7.75354 13.594 7.76152 13.5376 7.78722 13.4886C7.81293 13.4396 7.85479 13.401 7.90571 13.3793L13.5057 10.9793C13.5643 10.9543 13.6304 10.9535 13.6895 10.9772C13.7486 11.0009 13.7959 11.0471 13.8209 11.1057C13.8459 11.1643 13.8467 11.2304 13.823 11.2895C13.7993 11.3486 13.7531 11.3959 13.6945 11.4209L8.09451 13.8209C8.06461 13.8334 8.03253 13.84 8.00011 13.8401Z" fill="#677185"/>
<path d="M2.40016 11.4398C2.36862 11.4398 2.33738 11.4337 2.30823 11.4216C2.27908 11.4096 2.25259 11.3919 2.23029 11.3696C2.20799 11.3473 2.19032 11.3208 2.17828 11.2917C2.16625 11.2625 2.16009 11.2313 2.16016 11.1998V7.99977C2.16016 7.93611 2.18544 7.87507 2.23045 7.83006C2.27546 7.78505 2.3365 7.75977 2.40016 7.75977C2.46381 7.75977 2.52485 7.78505 2.56986 7.83006C2.61487 7.87507 2.64016 7.93611 2.64016 7.99977V11.1998C2.64023 11.2313 2.63407 11.2625 2.62203 11.2917C2.61 11.3208 2.59232 11.3473 2.57002 11.3696C2.54772 11.3919 2.52123 11.4096 2.49208 11.4216C2.46293 11.4337 2.43169 11.4398 2.40016 11.4398Z" fill="#677185"/>
<path d="M13.5999 11.4398C13.5683 11.4398 13.5371 11.4337 13.5079 11.4216C13.4788 11.4096 13.4523 11.3919 13.43 11.3696C13.4077 11.3473 13.39 11.3208 13.378 11.2917C13.366 11.2625 13.3598 11.2313 13.3599 11.1998V7.99977C13.3599 7.93611 13.3851 7.87507 13.4302 7.83006C13.4752 7.78505 13.5362 7.75977 13.5999 7.75977C13.6635 7.75977 13.7246 7.78505 13.7696 7.83006C13.8146 7.87507 13.8399 7.93611 13.8399 7.99977V11.1998C13.8399 11.2313 13.8338 11.2625 13.8217 11.2917C13.8097 11.3208 13.792 11.3473 13.7697 11.3696C13.7474 11.3919 13.7209 11.4096 13.6918 11.4216C13.6626 11.4337 13.6314 11.4398 13.5999 11.4398Z" fill="#677185"/>
<path d="M7.99977 13.8402C7.96823 13.8402 7.93699 13.8341 7.90784 13.822C7.87869 13.81 7.8522 13.7923 7.8299 13.77C7.8076 13.7477 7.78993 13.7212 7.77789 13.6921C7.76586 13.6629 7.7597 13.6317 7.75977 13.6002V10.4002C7.75977 10.3365 7.78505 10.2755 7.83006 10.2305C7.87507 10.1854 7.93611 10.1602 7.99977 10.1602C8.06342 10.1602 8.12446 10.1854 8.16947 10.2305C8.21448 10.2755 8.23977 10.3365 8.23977 10.4002V13.6002C8.23984 13.6317 8.23368 13.6629 8.22164 13.6921C8.2096 13.7212 8.19193 13.7477 8.16963 13.77C8.14733 13.7923 8.12084 13.81 8.09169 13.822C8.06254 13.8341 8.0313 13.8402 7.99977 13.8402Z" fill="#677185"/>
<path d="M7.99977 9.04035C7.96823 9.04042 7.93699 9.03426 7.90784 9.02223C7.87869 9.01019 7.8522 8.99251 7.8299 8.97021C7.8076 8.94791 7.78993 8.92143 7.77789 8.89228C7.76586 8.86313 7.7597 8.83189 7.75977 8.80035V5.60035C7.75977 5.5367 7.78505 5.47565 7.83006 5.43065C7.87507 5.38564 7.93611 5.36035 7.99977 5.36035C8.06342 5.36035 8.12446 5.38564 8.16947 5.43065C8.21448 5.47565 8.23977 5.5367 8.23977 5.60035V8.80035C8.23984 8.83189 8.23368 8.86313 8.22164 8.89228C8.2096 8.92143 8.19193 8.94791 8.16963 8.97021C8.14733 8.99251 8.12084 9.01019 8.09169 9.02223C8.06254 9.03426 8.0313 9.04042 7.99977 9.04035Z" fill="#677185"/>
<path d="M6.13341 9.8397C6.07806 9.83978 6.02438 9.82073 5.98148 9.78577C5.93857 9.75081 5.90906 9.70209 5.89795 9.64787C5.88684 9.59365 5.89482 9.53725 5.92052 9.48824C5.94623 9.43922 5.98809 9.4006 6.03901 9.3789L7.90567 8.5789C7.96423 8.55387 8.03034 8.55312 8.08945 8.57682C8.14856 8.60053 8.19584 8.64674 8.22087 8.7053C8.24591 8.76386 8.24666 8.82997 8.22295 8.88908C8.19925 8.94819 8.15303 8.99547 8.09447 9.0205L6.22781 9.8205C6.19791 9.83304 6.16583 9.83956 6.13341 9.8397Z" fill="#677185"/>
<path d="M9.86657 9.8397C9.83414 9.83956 9.80207 9.83304 9.77217 9.8205L7.9055 9.0205C7.84694 8.99547 7.80072 8.94819 7.77702 8.88908C7.75331 8.82997 7.75406 8.76386 7.7791 8.7053C7.80414 8.64674 7.85141 8.60053 7.91052 8.57682C7.96963 8.55312 8.03574 8.55387 8.0943 8.5789L9.96097 9.3789C10.0119 9.4006 10.0537 9.43922 10.0794 9.48824C10.1052 9.53725 10.1131 9.59365 10.102 9.64787C10.0909 9.70209 10.0614 9.75081 10.0185 9.78577C9.97559 9.82073 9.92191 9.83978 9.86657 9.8397Z" fill="#677185"/>
<path d="M10.7998 8.24024C10.7603 8.24027 10.7215 8.23055 10.6867 8.21194C10.6519 8.19333 10.6222 8.16641 10.6003 8.13357L8.93046 5.63491C8.70764 5.29725 8.58042 4.90556 8.56231 4.50142C8.54419 4.09728 8.63587 3.69577 8.82759 3.33954C9.01932 2.98331 9.30394 2.68565 9.65123 2.47817C9.99852 2.27069 10.3955 2.16113 10.8001 2.16113C11.2046 2.16113 11.6016 2.27069 11.9489 2.47817C12.2962 2.68565 12.5808 2.98331 12.7725 3.33954C12.9643 3.69577 13.0559 4.09728 13.0378 4.50142C13.0197 4.90556 12.8925 5.29725 12.6697 5.63491L12.6574 5.65304L10.9993 8.13357C10.9774 8.16641 10.9477 8.19333 10.9129 8.21194C10.8781 8.23055 10.8393 8.24027 10.7998 8.24024ZM10.7998 2.64024C10.4822 2.64069 10.1706 2.72709 9.89812 2.89026C9.62563 3.05343 9.40237 3.2873 9.25201 3.56707C9.10166 3.84684 9.02981 4.16208 9.04409 4.47937C9.05837 4.79666 9.15825 5.10417 9.33313 5.36931L9.34326 5.38477L10.7998 7.56824L12.2702 5.36771C12.4448 5.10233 12.5444 4.79464 12.5583 4.47727C12.5722 4.15989 12.4999 3.84468 12.3492 3.56505C12.1984 3.28542 11.9748 3.0518 11.702 2.88898C11.4292 2.72616 11.1175 2.64021 10.7998 2.64024Z" fill="#677185"/>
<path d="M11.1999 4.4C11.1999 4.17909 11.0208 4 10.7999 4C10.579 4 10.3999 4.17909 10.3999 4.4C10.3999 4.62091 10.579 4.8 10.7999 4.8C11.0208 4.8 11.1999 4.62091 11.1999 4.4Z" fill="#677185"/>
<path d="M10.8002 5.03977C10.6736 5.03977 10.5498 5.00223 10.4446 4.93191C10.3393 4.86158 10.2573 4.76163 10.2089 4.64468C10.1604 4.52774 10.1478 4.39906 10.1725 4.27491C10.1971 4.15076 10.2581 4.03672 10.3476 3.94722C10.4371 3.85771 10.5512 3.79676 10.6753 3.77206C10.7994 3.74737 10.9281 3.76004 11.0451 3.80848C11.162 3.85692 11.262 3.93895 11.3323 4.0442C11.4026 4.14945 11.4402 4.27319 11.4402 4.39977C11.4402 4.5695 11.3727 4.73229 11.2527 4.85231C11.1327 4.97234 10.9699 5.03977 10.8002 5.03977ZM10.8002 4.23977C10.7685 4.23977 10.7376 4.24915 10.7113 4.26673C10.685 4.28431 10.6644 4.3093 10.6523 4.33854C10.6402 4.36777 10.6371 4.39994 10.6432 4.43098C10.6494 4.46202 10.6646 4.49053 10.687 4.5129C10.7094 4.53528 10.7379 4.55052 10.7689 4.55669C10.8 4.56287 10.8321 4.5597 10.8614 4.54759C10.8906 4.53548 10.9156 4.51497 10.9332 4.48866C10.9508 4.46235 10.9602 4.43141 10.9602 4.39977C10.9602 4.35733 10.9433 4.31663 10.9133 4.28663C10.8833 4.25662 10.8426 4.23977 10.8002 4.23977Z" fill="#677185"/>
</g>
<defs>
<clipPath id="clip0_2430_14188">
<rect width="16" height="16" fill="white"/>
</clipPath>
</defs>
</svg>
