<svg width="16" height="17" viewBox="0 0 16 17" fill="none" xmlns="http://www.w3.org/2000/svg">
<path d="M8 14.8473C7.94101 14.8473 7.8832 14.8309 7.83294 14.8C7.78268 14.7691 7.74193 14.725 7.7152 14.6724L4.152 7.69107C3.89412 7.18574 3.73829 6.63457 3.69342 6.06902C3.64855 5.50348 3.71551 4.93463 3.89048 4.39496C4.06545 3.85529 4.345 3.35537 4.71318 2.92374C5.08135 2.49211 5.53094 2.13722 6.03626 1.87934C6.54159 1.62146 7.09276 1.46563 7.65831 1.42076C8.22386 1.37589 8.7927 1.44285 9.33237 1.61782C9.87204 1.79279 10.372 2.07234 10.8036 2.44052C11.2352 2.80869 11.5901 3.25828 11.848 3.7636C12.1572 4.37192 12.3184 5.04467 12.3184 5.72707C12.3184 6.40947 12.1572 7.08222 11.848 7.69054L11.8389 7.7092L8.28479 14.6735C8.25791 14.7258 8.2171 14.7698 8.16685 14.8005C8.1166 14.8311 8.05887 14.8474 8 14.8473ZM7.9936 2.04734C7.36432 2.04845 6.74585 2.2109 6.19726 2.51918C5.64867 2.82746 5.1883 3.27127 4.86013 3.80819C4.53197 4.34512 4.34696 4.95723 4.3228 5.58604C4.29864 6.21485 4.43613 6.83935 4.72213 7.39987L8 13.8244L11.2784 7.39934C11.5416 6.8812 11.6788 6.30824 11.6788 5.72707C11.6788 5.1459 11.5416 4.57295 11.2784 4.0548C10.9691 3.4499 10.4987 2.94227 9.91899 2.588C9.33931 2.23373 8.67296 2.04662 7.9936 2.04734ZM8 7.64734C7.62026 7.64734 7.24904 7.53473 6.9333 7.32376C6.61756 7.11279 6.37147 6.81292 6.22615 6.46209C6.08083 6.11125 6.0428 5.72521 6.11689 5.35276C6.19097 4.98032 6.37383 4.63821 6.64235 4.36969C6.91087 4.10118 7.25298 3.91831 7.62542 3.84423C7.99787 3.77015 8.38391 3.80817 8.73475 3.95349C9.08558 4.09881 9.38544 4.3449 9.59642 4.66064C9.80739 4.97638 9.91999 5.3476 9.91999 5.72734C9.91999 6.23655 9.71771 6.72491 9.35764 7.08498C8.99757 7.44505 8.50921 7.64734 8 7.64734ZM8 4.44734C7.74684 4.44734 7.49936 4.52241 7.28887 4.66306C7.07837 4.8037 6.91431 5.00361 6.81743 5.2375C6.72055 5.47139 6.6952 5.72876 6.74459 5.97705C6.79398 6.22535 6.91589 6.45342 7.0949 6.63243C7.27391 6.81144 7.50198 6.93335 7.75028 6.98274C7.99857 7.03213 8.25594 7.00678 8.48983 6.9099C8.72372 6.81302 8.92363 6.64896 9.06428 6.43847C9.20492 6.22797 9.27999 5.9805 9.27999 5.72734C9.27999 5.38786 9.14514 5.06229 8.90509 4.82224C8.66505 4.58219 8.33947 4.44734 8 4.44734Z" fill="#677185"/>
</svg>
