<svg width="16" height="16" viewBox="0 0 16 16" fill="none" xmlns="http://www.w3.org/2000/svg">
<path d="M10.7369 6.02777C10.841 5.92865 10.9816 5.87305 11.1281 5.87305C11.2746 5.87305 11.4152 5.92865 11.5193 6.02777C11.5707 6.07644 11.6116 6.13446 11.6394 6.19844C11.6673 6.26242 11.6816 6.3311 11.6816 6.40046C11.6816 6.46983 11.6673 6.5385 11.6394 6.60248C11.6116 6.66647 11.5707 6.72448 11.5193 6.77316L8.39294 9.71933C8.28859 9.81831 8.14791 9.87381 8.00134 9.87381C7.85476 9.87381 7.71408 9.81831 7.60974 9.71933L4.48334 6.77316C4.43194 6.72448 4.39112 6.66647 4.36325 6.60248C4.33539 6.5385 4.32104 6.46983 4.32104 6.40046C4.32104 6.3311 4.33539 6.26242 4.36325 6.19844C4.39112 6.13445 4.43194 6.07644 4.48334 6.02777C4.58744 5.92865 4.72803 5.87305 4.87454 5.87305C5.02104 5.87305 5.16163 5.92865 5.26574 6.02777L8.00254 8.44394L10.7369 6.02777Z" fill="#49505E"/>
</svg>
