<svg width="15" height="16" viewBox="0 0 15 16" fill="none" xmlns="http://www.w3.org/2000/svg">
<g clip-path="url(#clip0_2430_25291)">
<path fill-rule="evenodd" clip-rule="evenodd" d="M7.5 15.5C11.6421 15.5 15 12.1421 15 8C15 3.85786 11.6421 0.5 7.5 0.5C3.35786 0.5 0 3.85786 0 8C0 12.1421 3.35786 15.5 7.5 15.5Z" fill="#1565C0"/>
<path fill-rule="evenodd" clip-rule="evenodd" d="M10.2845 5.15933C10.4157 5.02927 10.5928 4.95608 10.7776 4.95557C10.9623 4.95506 11.1398 5.02728 11.2717 5.15661C11.4036 5.28594 11.4794 5.462 11.4825 5.64671C11.4857 5.83142 11.416 6.00996 11.2886 6.14371L7.54605 10.8218C7.48173 10.8911 7.4041 10.9467 7.3178 10.9853C7.2315 11.0239 7.13831 11.0447 7.04379 11.0464C6.94927 11.0482 6.85537 11.0309 6.7677 10.9955C6.68003 10.9601 6.6004 10.9074 6.53355 10.8406L4.05387 8.35996C3.98479 8.29559 3.92938 8.21796 3.89095 8.13171C3.85252 8.04546 3.83185 7.95236 3.83019 7.85795C3.82852 7.76354 3.84589 7.66976 3.88125 7.58221C3.91662 7.49466 3.96925 7.41513 4.03602 7.34836C4.10279 7.28159 4.18232 7.22896 4.26987 7.19359C4.35742 7.15823 4.4512 7.14086 4.54561 7.14253C4.64002 7.14419 4.73312 7.16486 4.81937 7.20329C4.90562 7.24172 4.98325 7.29713 5.04762 7.36621L7.01074 9.32839L10.2667 5.17996C10.2725 5.1727 10.2788 5.16581 10.2854 5.15933H10.2845Z" fill="white"/>
</g>
<defs>
<clipPath id="clip0_2430_25291">
<rect width="15" height="15" fill="white" transform="translate(0 0.5)"/>
</clipPath>
</defs>
</svg>
