<svg width="16" height="17" viewBox="0 0 16 17" fill="none" xmlns="http://www.w3.org/2000/svg">
<path d="M8.00001 2.50586C6.76586 2.50586 5.55942 2.86948 4.53325 3.55075C3.50709 4.23201 2.70729 5.20032 2.235 6.33322C1.76271 7.46612 1.63914 8.71274 1.87991 9.91542C2.12068 11.1181 2.71499 12.2228 3.58767 13.0899C4.46035 13.957 5.57221 14.5475 6.78265 14.7867C7.99309 15.026 9.24774 14.9032 10.388 14.4339C11.5282 13.9646 12.5027 13.17 13.1884 12.1504C13.874 11.1308 14.24 9.9321 14.24 8.70586C14.238 7.06212 13.58 5.48627 12.4102 4.32397C11.2404 3.16167 9.65435 2.50782 8.00001 2.50586V2.50586ZM8.00001 13.6341C7.01902 13.6341 6.06005 13.345 5.24438 12.8035C4.42872 12.262 3.79298 11.4923 3.41757 10.5918C3.04216 9.69129 2.94393 8.70039 3.13532 7.74441C3.3267 6.78844 3.79909 5.91031 4.49276 5.22109C5.18643 4.53187 6.07022 4.0625 7.03236 3.87235C7.99451 3.68219 8.9918 3.77979 9.89812 4.15279C10.8044 4.5258 11.5791 5.15746 12.1241 5.9679C12.6691 6.77833 12.96 7.73115 12.96 8.70586C12.9585 10.0124 12.4354 11.265 11.5055 12.1889C10.5757 13.1128 9.31501 13.6325 8.00001 13.6341V13.6341ZM8.64001 8.4409V5.52637C8.64001 5.35772 8.57258 5.19598 8.45256 5.07672C8.33254 4.95747 8.16975 4.89047 8.00001 4.89047C7.83027 4.89047 7.66749 4.95747 7.54746 5.07672C7.42744 5.19598 7.36001 5.35772 7.36001 5.52637V8.70586C7.36001 8.72604 7.36108 8.7462 7.36321 8.76627C7.36321 8.77634 7.36588 8.78588 7.36748 8.79542C7.36908 8.80495 7.37014 8.81714 7.37228 8.82774C7.37441 8.83834 7.37761 8.84894 7.38028 8.85953C7.38227 8.8692 7.38476 8.87875 7.38774 8.88815C7.39094 8.89875 7.39468 8.90882 7.39841 8.91889C7.40214 8.92895 7.40481 8.93796 7.40854 8.94697C7.41228 8.95598 7.41708 8.96552 7.42188 8.97453C7.42668 8.98354 7.43041 8.99413 7.43574 9.00367L7.45068 9.02911L7.46774 9.05666C7.47414 9.0662 7.48108 9.07468 7.48748 9.08369L7.50508 9.10701C7.51788 9.12184 7.53068 9.13668 7.54454 9.15046V9.15364L9.80748 11.4015C9.92771 11.521 10.0908 11.5881 10.2608 11.5881C10.4308 11.5881 10.5939 11.521 10.7141 11.4015C10.8344 11.2821 10.9019 11.1201 10.9019 10.9511C10.9019 10.7822 10.8344 10.6201 10.7141 10.5007L8.64001 8.4409Z" fill="#262A32"/>
</svg>
